<?xml version="1.0" encoding="UTF-8"?>
<svg xmlns="http://www.w3.org/2000/svg" xmlns:xlink="http://www.w3.org/1999/xlink" width="65px" height="95px" viewBox="0 0 65 95" version="1.1">
<defs>
<clipPath id="clip1">
  <path d="M 0.605469 2 L 64.722656 2 L 64.722656 95 L 0.605469 95 Z M 0.605469 2 "/>
</clipPath>
<linearGradient id="linear0" gradientUnits="userSpaceOnUse" x1="-8.65355" y1="34.748" x2="76.9992" y2="62.5782" gradientTransform="matrix(0.955882,0,0,1,0,0)">
<stop offset="0" style="stop-color:rgb(42.352941%,73.72549%,98.823529%);stop-opacity:1;"/>
<stop offset="0.1713" style="stop-color:rgb(36.862745%,67.058824%,98.823529%);stop-opacity:1;"/>
<stop offset="0.4084" style="stop-color:rgb(31.372549%,60.392157%,98.823529%);stop-opacity:1;"/>
<stop offset="0.6698" style="stop-color:rgb(28.235294%,56.470588%,98.823529%);stop-opacity:1;"/>
<stop offset="1" style="stop-color:rgb(27.058824%,55.294118%,98.823529%);stop-opacity:1;"/>
</linearGradient>
<linearGradient id="linear1" gradientUnits="userSpaceOnUse" x1="-4.58987" y1="-21.375" x2="56.3866" y2="7.98973" gradientTransform="matrix(0.955882,0,0,1,0,0)">
<stop offset="0" style="stop-color:rgb(81.176471%,91.372549%,100%);stop-opacity:1;"/>
<stop offset="1" style="stop-color:rgb(63.137255%,83.921569%,98.431373%);stop-opacity:1;"/>
</linearGradient>
<linearGradient id="linear2" gradientUnits="userSpaceOnUse" x1="14.6543" y1="2.57952" x2="53.5901" y2="2.57952" gradientTransform="matrix(0.955882,0,0,1,0,0)">
<stop offset="0" style="stop-color:rgb(69.019608%,95.686275%,100%);stop-opacity:1;"/>
<stop offset="1" style="stop-color:rgb(41.176471%,86.27451%,98.823529%);stop-opacity:1;"/>
</linearGradient>
<linearGradient id="linear3" gradientUnits="userSpaceOnUse" x1="14.7701" y1="29.2075" x2="24.5507" y2="41.8334" gradientTransform="matrix(0.955882,0,0,1,0,0)">
<stop offset="0" style="stop-color:rgb(42.352941%,73.72549%,98.823529%);stop-opacity:1;"/>
<stop offset="1" style="stop-color:rgb(27.058824%,55.294118%,98.823529%);stop-opacity:1;"/>
</linearGradient>
<linearGradient id="linear4" gradientUnits="userSpaceOnUse" x1="13.7093" y1="30.0293" x2="23.4899" y2="42.6553" gradientTransform="matrix(0.955882,0,0,1,0,0)">
<stop offset="0" style="stop-color:rgb(69.019608%,95.686275%,100%);stop-opacity:1;"/>
<stop offset="0.0994384" style="stop-color:rgb(63.137255%,93.72549%,99.607843%);stop-opacity:1;"/>
<stop offset="0.2994" style="stop-color:rgb(53.333333%,90.588235%,99.215686%);stop-opacity:1;"/>
<stop offset="0.5095" style="stop-color:rgb(46.666667%,88.235294%,99.215686%);stop-opacity:1;"/>
<stop offset="0.7344" style="stop-color:rgb(42.352941%,86.666667%,98.823529%);stop-opacity:1;"/>
<stop offset="1" style="stop-color:rgb(41.176471%,86.27451%,98.823529%);stop-opacity:1;"/>
</linearGradient>
<linearGradient id="linear5" gradientUnits="userSpaceOnUse" x1="29.5807" y1="26.551" x2="51.24" y2="26.564" gradientTransform="matrix(0.955882,0,0,1,0,0)">
<stop offset="0" style="stop-color:rgb(42.352941%,73.72549%,98.823529%);stop-opacity:1;"/>
<stop offset="1" style="stop-color:rgb(27.058824%,55.294118%,98.823529%);stop-opacity:1;"/>
</linearGradient>
<linearGradient id="linear6" gradientUnits="userSpaceOnUse" x1="29.5847" y1="30.4037" x2="43.7814" y2="30.4037" gradientTransform="matrix(0.955882,0,0,1,0,0)">
<stop offset="0" style="stop-color:rgb(42.352941%,73.72549%,98.823529%);stop-opacity:1;"/>
<stop offset="1" style="stop-color:rgb(27.058824%,55.294118%,98.823529%);stop-opacity:1;"/>
</linearGradient>
<clipPath id="clip2">
  <path d="M 0.605469 0 L 64.722656 0 L 64.722656 95 L 0.605469 95 Z M 0.605469 0 "/>
</clipPath>
<filter id="alpha" filterUnits="objectBoundingBox" x="0%" y="0%" width="100%" height="100%">
  <feColorMatrix type="matrix" in="SourceGraphic" values="0 0 0 0 1 0 0 0 0 1 0 0 0 0 1 0 0 0 1 0"/>
</filter>
<mask id="mask0">
  <g filter="url(#alpha)">
<rect x="0" y="0" width="65" height="95" style="fill:rgb(0%,0%,0%);fill-opacity:0.6;stroke:none;"/>
  </g>
</mask>
<linearGradient id="linear7" gradientUnits="userSpaceOnUse" x1="29.5894" y1="35.0098" x2="58.2374" y2="35.0098" gradientTransform="matrix(0.955882,0,0,1,0,0)">
<stop offset="0" style="stop-color:rgb(42.352941%,73.72549%,98.823529%);stop-opacity:1;"/>
<stop offset="1" style="stop-color:rgb(27.058824%,55.294118%,98.823529%);stop-opacity:1;"/>
</linearGradient>
<clipPath id="clip3">
  <rect x="0" y="0" width="65" height="95"/>
</clipPath>
<g id="surface5" clip-path="url(#clip3)">
<path style=" stroke:none;fill-rule:nonzero;fill:url(#linear7);" d="M 55.015625 35.734375 L 28.941406 35.769531 C 28.574219 35.769531 28.28125 35.460938 28.28125 35.078125 L 28.28125 34.964844 C 28.28125 34.582031 28.574219 34.277344 28.941406 34.277344 L 55.015625 34.242188 C 55.378906 34.242188 55.671875 34.550781 55.671875 34.929688 L 55.671875 35.046875 C 55.664062 35.429688 55.371094 35.734375 55.015625 35.734375 Z M 55.015625 35.734375 "/>
</g>
<mask id="mask1">
  <g filter="url(#alpha)">
<rect x="0" y="0" width="65" height="95" style="fill:rgb(0%,0%,0%);fill-opacity:0.6;stroke:none;"/>
  </g>
</mask>
<linearGradient id="linear8" gradientUnits="userSpaceOnUse" x1="10.7499" y1="47.9272" x2="57.6759" y2="47.9272" gradientTransform="matrix(0.955882,0,0,1,0,0)">
<stop offset="0" style="stop-color:rgb(42.352941%,73.72549%,98.823529%);stop-opacity:1;"/>
<stop offset="1" style="stop-color:rgb(27.058824%,55.294118%,98.823529%);stop-opacity:1;"/>
</linearGradient>
<clipPath id="clip4">
  <rect x="0" y="0" width="65" height="95"/>
</clipPath>
<g id="surface8" clip-path="url(#clip4)">
<path style=" stroke:none;fill-rule:nonzero;fill:url(#linear8);" d="M 54.453125 48.644531 L 10.957031 48.695312 C 10.585938 48.695312 10.277344 48.378906 10.277344 47.980469 L 10.277344 47.914062 C 10.277344 47.523438 10.578125 47.203125 10.957031 47.203125 L 54.453125 47.152344 C 54.824219 47.152344 55.132812 47.46875 55.132812 47.863281 L 55.132812 47.929688 C 55.132812 48.328125 54.824219 48.644531 54.453125 48.644531 Z M 54.453125 48.644531 "/>
</g>
<mask id="mask2">
  <g filter="url(#alpha)">
<rect x="0" y="0" width="65" height="95" style="fill:rgb(0%,0%,0%);fill-opacity:0.6;stroke:none;"/>
  </g>
</mask>
<linearGradient id="linear9" gradientUnits="userSpaceOnUse" x1="29.594" y1="39.5191" x2="58.242" y2="39.5191" gradientTransform="matrix(0.955882,0,0,1,0,0)">
<stop offset="0" style="stop-color:rgb(42.352941%,73.72549%,98.823529%);stop-opacity:1;"/>
<stop offset="1" style="stop-color:rgb(27.058824%,55.294118%,98.823529%);stop-opacity:1;"/>
</linearGradient>
<clipPath id="clip5">
  <rect x="0" y="0" width="65" height="95"/>
</clipPath>
<g id="surface11" clip-path="url(#clip5)">
<path style=" stroke:none;fill-rule:nonzero;fill:url(#linear9);" d="M 55.015625 40.246094 L 28.941406 40.277344 C 28.574219 40.277344 28.28125 39.972656 28.28125 39.589844 L 28.28125 39.472656 C 28.28125 39.09375 28.574219 38.785156 28.941406 38.785156 L 55.015625 38.753906 C 55.378906 38.753906 55.671875 39.058594 55.671875 39.441406 L 55.671875 39.558594 C 55.671875 39.9375 55.378906 40.246094 55.015625 40.246094 Z M 55.015625 40.246094 "/>
</g>
</defs>
<g id="surface1">
<g clip-path="url(#clip1)" clip-rule="nonzero">
<path style=" stroke:none;fill-rule:nonzero;fill:url(#linear0);" d="M 64.722656 90.449219 C 64.722656 92.925781 62.804688 94.941406 60.4375 94.941406 L 4.988281 95.007812 C 3.105469 95.007812 1.503906 93.738281 0.925781 91.972656 C 0.773438 91.519531 0.695312 91.035156 0.695312 90.53125 L 0.605469 6.882812 C 0.605469 4.402344 2.523438 2.386719 4.894531 2.386719 L 55.808594 2.328125 L 60.339844 2.320312 C 62.710938 2.320312 64.636719 4.328125 64.636719 6.808594 Z M 64.722656 90.449219 "/>
</g>
<path style=" stroke:none;fill-rule:nonzero;fill:rgb(100%,100%,100%);fill-opacity:1;" d="M 58.976562 89.96875 L 6.441406 90.027344 C 5.164062 90.027344 4.132812 88.949219 4.132812 87.613281 L 4.054688 9.765625 C 4.054688 8.433594 5.085938 7.355469 6.359375 7.355469 L 58.890625 7.296875 C 60.167969 7.296875 61.195312 8.375 61.195312 9.710938 L 61.277344 87.554688 C 61.285156 88.882812 60.253906 89.96875 58.976562 89.96875 Z M 58.976562 89.96875 "/>
<path style=" stroke:none;fill-rule:nonzero;fill:url(#linear1);" d="M 51.597656 13.714844 L 13.28125 13.761719 C 12.011719 13.761719 10.972656 12.683594 10.972656 11.359375 L 10.964844 4.675781 C 10.964844 3.351562 11.996094 2.261719 13.265625 2.261719 L 51.589844 2.222656 C 52.859375 2.222656 53.898438 3.300781 53.898438 4.625 L 53.90625 11.308594 C 53.898438 12.636719 52.867188 13.714844 51.597656 13.714844 Z M 13.265625 3.492188 C 12.644531 3.492188 12.136719 4.019531 12.136719 4.667969 L 12.144531 11.351562 C 12.144531 11.996094 12.652344 12.527344 13.273438 12.527344 L 51.597656 12.488281 C 52.21875 12.488281 52.722656 11.957031 52.722656 11.308594 L 52.714844 4.625 C 52.714844 3.980469 52.210938 3.449219 51.589844 3.449219 Z M 13.265625 3.492188 "/>
<path style=" stroke:none;fill-rule:nonzero;fill:url(#linear2);" d="M 50.511719 5.117188 L 14.730469 5.15625 C 14.332031 5.15625 14.015625 4.824219 14.015625 4.410156 L 14.015625 0.789062 C 14.015625 0.375 14.332031 0.0429688 14.730469 0.0429688 L 50.503906 0 C 50.902344 0 51.21875 0.332031 51.21875 0.746094 L 51.21875 4.371094 C 51.226562 4.785156 50.910156 5.117188 50.511719 5.117188 Z M 50.511719 5.117188 "/>
<path style=" stroke:none;fill-rule:nonzero;fill:rgb(34.509804%,83.921569%,95.686275%);fill-opacity:1;" d="M 14.761719 5.15625 L 50.480469 5.117188 C 50.894531 5.117188 51.226562 4.765625 51.226562 4.335938 L 51.226562 2.5625 L 14.007812 2.601562 L 14.007812 4.378906 C 14.007812 4.808594 14.351562 5.15625 14.761719 5.15625 Z M 14.761719 5.15625 "/>
<path style=" stroke:none;fill-rule:nonzero;fill:rgb(34.509804%,83.921569%,95.686275%);fill-opacity:1;" d="M 27.316406 81.210938 L 24.226562 61.644531 L 21.71875 70.160156 L 14.554688 70.167969 C 14.121094 70.167969 13.769531 69.804688 13.769531 69.347656 C 13.769531 68.890625 14.121094 68.527344 14.554688 68.527344 L 20.570312 68.519531 L 24.699219 54.496094 L 27.792969 74.113281 L 31.800781 60.640625 L 33.933594 67.027344 L 38.734375 54.847656 L 43.402344 74.164062 L 45.164062 68.019531 L 50.316406 68.011719 C 50.75 68.011719 51.101562 68.378906 51.101562 68.832031 C 51.101562 69.289062 50.75 69.652344 50.316406 69.652344 L 46.328125 69.664062 L 43.277344 80.316406 L 38.378906 60.054688 L 33.804688 71.636719 L 31.878906 65.875 Z M 27.316406 81.210938 "/>
<path style=" stroke:none;fill-rule:nonzero;fill:url(#linear3);" d="M 22.003906 43.488281 L 11.933594 43.496094 C 10.308594 43.496094 8.976562 42.109375 8.976562 40.410156 L 8.960938 25.675781 C 8.960938 23.976562 10.285156 22.585938 11.910156 22.585938 L 21.980469 22.578125 C 23.605469 22.578125 24.9375 23.960938 24.9375 25.660156 L 24.953125 40.394531 C 24.953125 42.09375 23.628906 43.480469 22.003906 43.488281 Z M 11.902344 23.480469 C 10.742188 23.480469 9.808594 24.46875 9.808594 25.675781 L 9.824219 40.410156 C 9.824219 41.621094 10.765625 42.601562 11.925781 42.601562 L 21.996094 42.589844 C 23.15625 42.589844 24.089844 41.605469 24.089844 40.394531 L 24.074219 25.660156 C 24.074219 24.449219 23.132812 23.472656 21.972656 23.472656 Z M 11.902344 23.480469 "/>
<path style=" stroke:none;fill-rule:nonzero;fill:url(#linear4);" d="M 16.957031 40.660156 C 21.71875 40.652344 23.203125 37.773438 23.203125 37.773438 C 22.988281 37.492188 22.71875 37.242188 22.355469 36.996094 C 21.101562 36.140625 20.09375 35.777344 19.675781 35.410156 C 19.246094 35.054688 19.011719 34.53125 19.011719 34.53125 L 18.75 34.699219 C 18.75 34.699219 18.589844 34.125 18.675781 33.253906 C 18.675781 33.253906 19.050781 33.15625 19.328125 31.839844 C 19.769531 31.929688 20.292969 30.75 20.046875 30.320312 C 19.890625 30.039062 19.699219 30.0625 19.566406 30.128906 C 19.699219 29.542969 20.308594 26.28125 16.949219 26.28125 C 13.589844 26.28125 14.199219 29.542969 14.339844 30.128906 C 14.207031 30.0625 14.015625 30.039062 13.859375 30.320312 C 13.613281 30.75 14.144531 31.929688 14.585938 31.839844 C 14.863281 33.15625 15.246094 33.246094 15.246094 33.246094 C 15.339844 34.109375 15.175781 34.691406 15.175781 34.691406 L 14.914062 34.523438 C 14.914062 34.523438 14.675781 35.039062 14.246094 35.402344 C 13.820312 35.769531 12.820312 36.140625 11.566406 36.996094 C 11.203125 37.242188 10.925781 37.492188 10.71875 37.773438 C 10.710938 37.792969 12.203125 40.667969 16.957031 40.660156 Z M 16.957031 40.660156 "/>
<path style=" stroke:none;fill-rule:nonzero;fill:url(#linear5);" d="M 48.324219 27.277344 L 28.933594 27.304688 C 28.566406 27.304688 28.273438 26.996094 28.273438 26.613281 L 28.273438 26.5 C 28.273438 26.117188 28.566406 25.808594 28.933594 25.808594 L 48.324219 25.785156 C 48.691406 25.785156 48.984375 26.09375 48.984375 26.472656 L 48.984375 26.589844 C 48.984375 26.972656 48.683594 27.277344 48.324219 27.277344 Z M 48.324219 27.277344 "/>
<path style=" stroke:none;fill-rule:nonzero;fill:url(#linear6);" d="M 41.191406 31.140625 L 28.933594 31.15625 C 28.566406 31.15625 28.273438 30.851562 28.273438 30.46875 L 28.273438 30.355469 C 28.273438 29.972656 28.566406 29.664062 28.933594 29.664062 L 41.191406 29.648438 C 41.558594 29.648438 41.851562 29.957031 41.851562 30.335938 L 41.851562 30.453125 C 41.851562 30.835938 41.558594 31.140625 41.191406 31.140625 Z M 41.191406 31.140625 "/>
<g clip-path="url(#clip2)" clip-rule="nonzero">
<use xlink:href="#surface5" mask="url(#mask0)"/>
<use xlink:href="#surface8" mask="url(#mask1)"/>
<use xlink:href="#surface11" mask="url(#mask2)"/>
</g>
</g>
</svg>
