<?xml version="1.0" encoding="UTF-8"?>
<svg xmlns="http://www.w3.org/2000/svg" xmlns:xlink="http://www.w3.org/1999/xlink" width="65px" height="95px" viewBox="0 0 65 95" version="1.1">
<defs>
<clipPath id="clip1">
  <path d="M 0 13 L 64.851562 13 L 64.851562 95 L 0 95 Z M 0 13 "/>
</clipPath>
<linearGradient id="linear0" gradientUnits="userSpaceOnUse" x1="-0.000000208595" y1="11.3333" x2="57.1389" y2="90.1944" gradientTransform="matrix(1.048387,0,0,1.117647,0,0)">
<stop offset="0" style="stop-color:rgb(42.352941%,73.72549%,98.823529%);stop-opacity:1;"/>
<stop offset="1" style="stop-color:rgb(27.058824%,55.294118%,98.823529%);stop-opacity:1;"/>
</linearGradient>
<linearGradient id="linear1" gradientUnits="userSpaceOnUse" x1="-629.93" y1="-39.931" x2="-27.6041" y2="2.02206" gradientTransform="matrix(1.048387,0,0,1.117647,0,0)">
<stop offset="0" style="stop-color:rgb(69.019608%,95.686275%,100%);stop-opacity:1;"/>
<stop offset="0.0525488" style="stop-color:rgb(66.27451%,94.901961%,100%);stop-opacity:1;"/>
<stop offset="0.2879" style="stop-color:rgb(55.294118%,90.980392%,99.607843%);stop-opacity:1;"/>
<stop offset="0.5247" style="stop-color:rgb(47.45098%,88.235294%,99.215686%);stop-opacity:1;"/>
<stop offset="0.7618" style="stop-color:rgb(42.745098%,86.666667%,98.823529%);stop-opacity:1;"/>
<stop offset="1" style="stop-color:rgb(41.176471%,86.27451%,98.823529%);stop-opacity:1;"/>
</linearGradient>
<linearGradient id="linear2" gradientUnits="userSpaceOnUse" x1="6.13994" y1="6.11313" x2="56.1258" y2="6.11313" gradientTransform="matrix(1.048387,0,0,1.117647,0,0)">
<stop offset="0" style="stop-color:rgb(69.019608%,95.686275%,100%);stop-opacity:1;"/>
<stop offset="0.0525488" style="stop-color:rgb(66.27451%,94.901961%,100%);stop-opacity:1;"/>
<stop offset="0.2879" style="stop-color:rgb(55.294118%,90.980392%,99.607843%);stop-opacity:1;"/>
<stop offset="0.5247" style="stop-color:rgb(47.45098%,88.235294%,99.215686%);stop-opacity:1;"/>
<stop offset="0.7618" style="stop-color:rgb(42.745098%,86.666667%,98.823529%);stop-opacity:1;"/>
<stop offset="1" style="stop-color:rgb(41.176471%,86.27451%,98.823529%);stop-opacity:1;"/>
</linearGradient>
<clipPath id="clip2">
  <path d="M 0 38 L 64.851562 38 L 64.851562 70 L 0 70 Z M 0 38 "/>
</clipPath>
<clipPath id="clip3">
  <path d="M 0 38 L 64.851562 38 L 64.851562 45 L 0 45 Z M 0 38 "/>
</clipPath>
<linearGradient id="linear3" gradientUnits="userSpaceOnUse" x1="21.9779" y1="43.0953" x2="12.5975" y2="53.9124" gradientTransform="matrix(1.048387,0,0,1.117647,0,0)">
<stop offset="0" style="stop-color:rgb(42.352941%,73.72549%,98.823529%);stop-opacity:1;"/>
<stop offset="1" style="stop-color:rgb(27.058824%,55.294118%,98.823529%);stop-opacity:1;"/>
</linearGradient>
<linearGradient id="linear4" gradientUnits="userSpaceOnUse" x1="52.3847" y1="45.671" x2="28.8866" y2="45.671" gradientTransform="matrix(1.048387,0,0,1.117647,0,0)">
<stop offset="0" style="stop-color:rgb(42.352941%,73.72549%,98.823529%);stop-opacity:1;"/>
<stop offset="1" style="stop-color:rgb(27.058824%,55.294118%,98.823529%);stop-opacity:1;"/>
</linearGradient>
<clipPath id="clip4">
  <path d="M 0 0 L 64.851562 0 L 64.851562 95 L 0 95 Z M 0 0 "/>
</clipPath>
<filter id="alpha" filterUnits="objectBoundingBox" x="0%" y="0%" width="100%" height="100%">
  <feColorMatrix type="matrix" in="SourceGraphic" values="0 0 0 0 1 0 0 0 0 1 0 0 0 0 1 0 0 0 1 0"/>
</filter>
<mask id="mask0">
  <g filter="url(#alpha)">
<rect x="0" y="0" width="65" height="95" style="fill:rgb(0%,0%,0%);fill-opacity:0.501961;stroke:none;"/>
  </g>
</mask>
<linearGradient id="linear5" gradientUnits="userSpaceOnUse" x1="30.5519" y1="51.5322" x2="52.179" y2="51.5322" gradientTransform="matrix(1.048387,0,0,1.117647,0,0)">
<stop offset="0" style="stop-color:rgb(42.352941%,73.72549%,98.823529%);stop-opacity:1;"/>
<stop offset="1" style="stop-color:rgb(27.058824%,55.294118%,98.823529%);stop-opacity:1;"/>
</linearGradient>
<clipPath id="clip5">
  <rect x="0" y="0" width="65" height="95"/>
</clipPath>
<g id="surface5" clip-path="url(#clip5)">
<path style=" stroke:none;fill-rule:nonzero;fill:url(#linear5);" d="M 53.699219 58.976562 L 33.035156 58.867188 C 32.484375 58.867188 32.03125 58.386719 32.03125 57.796875 L 32.03125 57.296875 C 32.03125 56.707031 32.484375 56.226562 33.035156 56.226562 L 53.699219 56.332031 C 54.25 56.332031 54.703125 56.816406 54.703125 57.40625 L 54.703125 57.90625 C 54.703125 58.492188 54.25 58.976562 53.699219 58.976562 Z M 53.699219 58.976562 "/>
</g>
<mask id="mask1">
  <g filter="url(#alpha)">
<rect x="0" y="0" width="65" height="95" style="fill:rgb(0%,0%,0%);fill-opacity:0.0784314;stroke:none;"/>
  </g>
</mask>
<clipPath id="clip6">
  <rect x="0" y="0" width="65" height="95"/>
</clipPath>
<g id="surface8" clip-path="url(#clip6)">
<path style=" stroke:none;fill-rule:nonzero;fill:rgb(10.196078%,43.529412%,70.980392%);fill-opacity:1;" d="M 6.429688 1.980469 L 6.429688 2.375 L 6.464844 7.015625 L 6.496094 11.550781 L 6.496094 12.101562 C 6.496094 12.960938 7.167969 13.65625 7.96875 13.65625 L 8.320312 13.65625 L 10.550781 13.636719 L 12.976562 13.621094 L 15.1875 13.601562 L 17.613281 13.585938 L 19.824219 13.566406 L 22.253906 13.546875 L 24.464844 13.53125 L 26.890625 13.511719 L 29.117188 13.496094 L 31.546875 13.476562 L 33.757812 13.460938 L 36.183594 13.441406 L 38.394531 13.421875 L 40.824219 13.40625 L 43.050781 13.386719 L 45.476562 13.371094 L 47.6875 13.351562 L 50.117188 13.335938 L 52.324219 13.316406 L 54.753906 13.296875 L 56.980469 13.28125 L 57.332031 13.28125 C 58.136719 13.28125 58.789062 12.566406 58.789062 11.710938 L 58.789062 11.300781 C 32.886719 12.496094 7.886719 0.410156 7.886719 0.410156 C 7.082031 0.429688 6.429688 1.125 6.429688 1.980469 Z M 6.429688 1.980469 "/>
</g>
</defs>
<g id="surface1">
<g clip-path="url(#clip1)" clip-rule="nonzero">
<path style=" stroke:none;fill-rule:nonzero;fill:url(#linear0);" d="M 64.851562 29.597656 L 64.648438 74.078125 L 64.617188 82.683594 C 64.582031 89.519531 58.488281 95.035156 50.984375 95 L 13.511719 94.820312 C 6.027344 94.769531 -0.0351562 89.199219 0 82.34375 L 0.234375 29.257812 C 0.25 23.722656 4.269531 19.046875 9.761719 17.492188 L 9.777344 14.636719 L 9.777344 13.171875 L 55.441406 13.40625 L 55.421875 17.726562 C 60.898438 19.351562 64.867188 24.042969 64.851562 29.597656 Z M 64.851562 29.597656 "/>
</g>
<path style=" stroke:none;fill-rule:nonzero;fill:url(#linear1);" d="M 58.839844 1.980469 L 58.839844 2.375 L 58.804688 7.015625 L 58.773438 11.566406 L 58.773438 12.121094 C 58.773438 12.976562 58.101562 13.671875 57.300781 13.671875 L 56.945312 13.671875 L 54.738281 13.65625 L 52.308594 13.636719 L 50.097656 13.621094 L 47.671875 13.601562 L 45.425781 13.566406 L 43 13.546875 L 40.789062 13.53125 L 38.34375 13.511719 L 36.117188 13.496094 L 33.6875 13.476562 L 31.480469 13.441406 L 29.050781 13.421875 L 26.839844 13.40625 L 24.394531 13.386719 L 22.167969 13.371094 L 19.757812 13.351562 L 17.546875 13.335938 L 15.121094 13.316406 L 12.894531 13.296875 L 10.464844 13.28125 L 8.238281 13.261719 L 7.886719 13.261719 C 7.082031 13.261719 6.429688 12.550781 6.429688 11.691406 L 6.429688 11.28125 L 6.496094 2.105469 L 6.496094 1.554688 C 6.496094 0.695312 7.167969 0 7.988281 0 L 8.339844 0 L 12.992188 0.0351562 L 17.648438 0.0703125 L 19.875 0.0898438 L 22.304688 0.105469 L 24.511719 0.125 L 29.152344 0.179688 L 31.578125 0.195312 L 33.789062 0.214844 L 36.21875 0.230469 L 38.429688 0.25 L 40.855469 0.269531 L 43.066406 0.285156 L 45.492188 0.304688 L 47.703125 0.320312 L 50.164062 0.355469 L 52.375 0.375 L 54.804688 0.394531 L 57.03125 0.410156 L 57.382812 0.410156 C 58.203125 0.429688 58.839844 1.125 58.839844 1.980469 Z M 58.839844 1.980469 "/>
<path style=" stroke:none;fill-rule:nonzero;fill:url(#linear2);" d="M 58.839844 2.390625 L 58.804688 7.015625 L 58.773438 11.566406 L 56.78125 11.550781 L 54.132812 11.53125 L 51.707031 11.511719 L 49.042969 11.511719 L 46.617188 11.496094 L 43.96875 11.476562 L 41.542969 11.460938 L 38.878906 11.460938 L 36.453125 11.441406 L 33.789062 11.425781 L 31.378906 11.40625 L 28.714844 11.40625 L 26.289062 11.386719 L 23.625 11.371094 L 21.199219 11.351562 L 18.550781 11.351562 L 16.125 11.335938 L 13.460938 11.316406 L 11.035156 11.300781 L 8.390625 11.300781 L 6.429688 11.28125 L 6.496094 2.105469 L 11.152344 2.125 L 16.226562 2.160156 L 18.652344 2.179688 L 21.316406 2.195312 L 23.742188 2.195312 L 28.816406 2.230469 L 31.480469 2.25 L 33.90625 2.25 L 36.570312 2.265625 L 38.980469 2.285156 L 41.644531 2.300781 L 44.070312 2.300781 L 46.734375 2.320312 L 49.144531 2.339844 L 51.808594 2.355469 L 54.234375 2.355469 L 56.898438 2.375 Z M 58.839844 2.390625 "/>
<g clip-path="url(#clip2)" clip-rule="nonzero">
<path style=" stroke:none;fill-rule:nonzero;fill:rgb(96.862745%,97.647059%,98.823529%);fill-opacity:1;" d="M 64.800781 38.988281 L 0.183594 38.664062 L 0.0507812 69.203125 L 64.664062 69.53125 Z M 64.800781 38.988281 "/>
</g>
<g clip-path="url(#clip3)" clip-rule="nonzero">
<path style=" stroke:none;fill-rule:nonzero;fill:rgb(98.431373%,98.823529%,96.862745%);fill-opacity:1;" d="M 64.8125 38.988281 L 0.195312 38.664062 L 0.171875 44.160156 L 64.789062 44.484375 Z M 64.8125 38.988281 "/>
</g>
<path style=" stroke:none;fill-rule:nonzero;fill:url(#linear3);" d="M 25.382812 50.941406 L 21.214844 50.925781 L 21.230469 46.460938 L 15.488281 46.445312 L 15.472656 50.890625 L 11.300781 50.871094 L 11.269531 56.976562 L 15.4375 56.992188 L 15.421875 61.457031 L 21.164062 61.472656 L 21.179688 57.03125 L 25.351562 57.046875 Z M 25.382812 50.941406 "/>
<path style=" stroke:none;fill-rule:nonzero;fill:url(#linear4);" d="M 53.714844 52.425781 L 33.054688 52.316406 C 32.5 52.316406 32.046875 51.835938 32.046875 51.246094 L 32.046875 50.746094 C 32.046875 50.15625 32.5 49.675781 33.054688 49.675781 L 53.714844 49.78125 C 54.269531 49.78125 54.71875 50.265625 54.71875 50.851562 L 54.71875 51.351562 C 54.71875 51.941406 54.269531 52.425781 53.714844 52.425781 Z M 53.714844 52.425781 "/>
<g clip-path="url(#clip4)" clip-rule="nonzero">
<use xlink:href="#surface5" mask="url(#mask0)"/>
<use xlink:href="#surface8" mask="url(#mask1)"/>
</g>
</g>
</svg>
